<svg viewBox="0 0 86 86" xmlns="http://www.w3.org/2000/svg">
  <path fill="#f0146e" fill-rule="evenodd" d="m42.64,0c7.54,0,14.62,1.96,20.77,5.4l-8.76,14.53-.68-.35c-3.42-1.68-7.26-2.63-11.33-2.63h-.8c-4.81.16-9.28,1.63-13.07,4.07H5.88l.39-.65C13.77,8.15,27.25,0,42.64,0Zm32.56,3.47l-33.3,54.43-17.13-28.28h-10.71l-3.97-6.14h18.02l14.03,21.97L67.44,3.47h7.76Zm-52.13,28.66l18.93,30.42,18.57-30.42h7.54l-26.19,42.74L15.74,32.13h7.33Zm49.57-19.78l.58.58c7.4,7.62,11.99,18,12.06,29.44v1.23c-.52,23.1-19.41,41.67-42.64,41.67h-.71C18.71,84.89,0,65.95,0,42.64v-.97c.18-7.42,2.24-14.37,5.73-20.39l11.45,17.92-.1.85c-.09.85-.13,1.72-.13,2.59v.62c.27,10.94,7.37,20.19,17.2,23.63l5.68,9.27,2.1,3.42,2.1-3.42,5.34-8.72.57-.16c10.63-3.14,18.39-12.98,18.39-24.63l-.02-.9c-.05-1.49-.23-2.95-.52-4.37l2.43-3.96,2.29-3.74h-7.69l-.45-.74c-.31-.49-.64-.97-.98-1.44l9.26-15.14Z"/>
</svg>
